<svg width="24" height="24" viewBox="0 0 24 24" fill="none" xmlns="http://www.w3.org/2000/svg">
<path d="M12 5.625C8.51048 5.625 5.625 8.51048 5.625 12C5.625 15.4895 8.51048 18.375 12 18.375C15.4895 18.375 18.375 15.4895 18.375 12C18.375 8.51048 15.4895 5.625 12 5.625ZM12.7031 16.8977V7.10231C15.082 7.44717 16.9688 9.52711 16.9688 12C16.9688 14.4729 15.082 16.5528 12.7031 16.8977ZM12 0C11.6114 0 11.2969 0.314484 11.2969 0.703125V3.51562C11.2969 3.90427 11.6114 4.21875 12 4.21875C12.3886 4.21875 12.7031 3.90427 12.7031 3.51562V0.703125C12.7031 0.314484 12.3886 0 12 0ZM12 19.7812C11.6114 19.7812 11.2969 20.0957 11.2969 20.4844V23.2969C11.2969 23.6855 11.6114 24 12 24C12.3886 24 12.7031 23.6855 12.7031 23.2969V20.4844C12.7031 20.0957 12.3886 19.7812 12 19.7812ZM3.51562 11.2969H0.703125C0.314484 11.2969 0 11.6114 0 12C0 12.3886 0.314484 12.7031 0.703125 12.7031H3.51562C3.90427 12.7031 4.21875 12.3886 4.21875 12C4.21875 11.6114 3.90427 11.2969 3.51562 11.2969ZM23.2969 11.2969H20.4844C20.0957 11.2969 19.7812 11.6114 19.7812 12C19.7812 12.3886 20.0957 12.7031 20.4844 12.7031H23.2969C23.6855 12.7031 24 12.3886 24 12C24 11.6114 23.6855 11.2969 23.2969 11.2969ZM6.48403 17.516C6.20939 17.2414 5.76441 17.2414 5.48977 17.516L3.50053 19.5045C3.22584 19.7792 3.22584 20.2241 3.50053 20.4988C3.77517 20.7735 4.22016 20.7735 4.4948 20.4988L6.48403 18.5103C6.75867 18.2356 6.75867 17.7907 6.48403 17.516ZM20.4988 3.50119C20.2242 3.22655 19.7792 3.22655 19.5045 3.50119L17.516 5.48972C17.2414 5.76436 17.2414 6.20934 17.516 6.48398C17.7907 6.75863 18.2356 6.75863 18.5103 6.48398L20.4988 4.49545C20.7735 4.22081 20.7735 3.77588 20.4988 3.50119ZM20.4988 19.5045L18.5103 17.516C18.2356 17.2414 17.7907 17.2414 17.516 17.516C17.2414 17.7907 17.2414 18.2356 17.516 18.5103L19.5045 20.4988C19.7792 20.7735 20.2242 20.7735 20.4988 20.4988C20.7735 20.2242 20.7735 19.7792 20.4988 19.5045ZM6.48403 5.48972L4.4948 3.50119C4.22011 3.22655 3.77517 3.22655 3.50053 3.50119C3.22589 3.77583 3.22589 4.22081 3.50053 4.49545L5.48977 6.48398C5.76441 6.75863 6.20939 6.75863 6.48403 6.48398C6.75867 6.20934 6.75867 5.76436 6.48403 5.48972Z" fill="white"/>
</svg>
