<svg width="14" height="24" viewBox="0 0 14 24" fill="none" xmlns="http://www.w3.org/2000/svg">
<path d="M13.7618 8.2312C13.7297 8.16216 13.6785 8.10372 13.6143 8.06277C13.5501 8.02181 13.4755 8.00004 13.3994 8.00002H8.65938L13.3374 0.614016C13.3757 0.553535 13.397 0.483879 13.3992 0.412324C13.4014 0.340769 13.3843 0.26994 13.3498 0.207234C13.3153 0.144483 13.2646 0.0921483 13.2029 0.0556951C13.1413 0.0192418 13.071 7.27942e-06 12.9994 0L6.59937 0C6.52505 9.81456e-06 6.4522 0.0207072 6.38897 0.0597749C6.32575 0.0988425 6.27464 0.154738 6.24138 0.221203L0.241385 12.2212C0.210925 12.2821 0.19655 12.3498 0.199626 12.4179C0.202703 12.4859 0.223129 12.5521 0.258963 12.61C0.29483 12.668 0.344925 12.7159 0.404497 12.7492C0.46407 12.7824 0.531146 12.7999 0.599369 12.8H4.71256L0.230556 23.4448C0.193601 23.533 0.189416 23.6315 0.218756 23.7226C0.248096 23.8136 0.309026 23.8911 0.390541 23.9412C0.472167 23.991 0.568925 24.01 0.663339 23.9948C0.757752 23.9795 0.843598 23.931 0.905369 23.858L13.7054 8.65795C13.7545 8.59958 13.7858 8.5284 13.7958 8.4528C13.8058 8.3772 13.794 8.30032 13.7618 8.2312Z" fill="#F7B100"/>
</svg>
