<svg width="20" height="20" viewBox="0 0 20 20" fill="none" xmlns="http://www.w3.org/2000/svg">
<path d="M13.2964 1.10971C13.2961 0.900595 13.237 0.695811 13.1258 0.518889C13.0147 0.341967 12.856 0.200087 12.6681 0.109553C12.4801 0.0190186 12.2705 -0.016495 12.0634 0.00709383C11.8562 0.0306827 11.6599 0.112416 11.4969 0.242902L6.26039 4.44357H1.10803C0.814164 4.44357 0.532332 4.56065 0.324536 4.76905C0.116739 4.97746 0 5.26012 0 5.55485V14.4451C0 14.7399 0.116739 15.0225 0.324536 15.2309C0.532332 15.4394 0.814164 15.5564 1.10803 15.5564H6.26039L11.4969 19.7571C11.6599 19.8876 11.8562 19.9693 12.0634 19.9929C12.2705 20.0165 12.4801 19.981 12.6681 19.8904C12.856 19.7999 13.0147 19.658 13.1258 19.4811C13.237 19.3042 13.2961 19.0994 13.2964 18.8903V1.10971ZM7.33961 6.42166L11.0803 3.42118V16.5788L7.33961 13.5783C7.14347 13.4205 6.89965 13.3343 6.6482 13.3339H2.21607V6.66614H6.6482C6.89965 6.66569 7.14347 6.57947 7.33961 6.42166ZM20 10C20.0017 11.3137 19.7445 12.6148 19.2433 13.8284C18.7421 15.0421 18.0066 16.1445 17.0792 17.0722L15.5125 15.5009C16.2338 14.7793 16.8057 13.9218 17.1956 12.9778C17.5854 12.0338 17.7853 11.0218 17.7839 10C17.7852 8.97824 17.5852 7.96629 17.1954 7.02228C16.8056 6.07827 16.2337 5.2208 15.5125 4.49913L17.0792 2.92777C18.0066 3.85549 18.7421 4.95787 19.2433 6.17156C19.7445 7.38525 20.0017 8.68632 20 10Z" fill="white"/>
</svg>
