<svg width="1088" height="467" viewBox="0 0 1088 467" fill="none" xmlns="http://www.w3.org/2000/svg">
<rect width="1088" height="467" fill="white"/>
<path d="M372.706 170.315V386.521C372.706 391.334 368.79 395.25 363.977 395.25H307.606C302.793 395.25 298.877 391.334 298.877 386.521V170.315C298.877 165.502 302.793 161.586 307.606 161.586H363.977C368.79 161.586 372.706 165.482 372.706 170.315ZM284.56 385.44L218.889 273.085L281.134 171.784C284.111 167.46 281.032 161.566 275.79 161.566L207.366 161.688C205.204 161.688 203.164 162.769 201.961 164.564L153.605 246.735H125.378V170.315C125.378 165.502 121.463 161.586 116.65 161.586H60.2987C55.4855 161.586 51.5697 165.502 51.5697 170.315V386.521C51.5697 391.334 55.4855 395.25 60.2987 395.25H116.67C121.483 395.25 125.399 391.334 125.399 386.521V310.407H159.744L207.814 392.17C208.997 394.128 211.118 395.352 213.402 395.352H279.013C284.111 395.352 287.232 389.784 284.56 385.44ZM1023.48 395.25C1028.3 395.25 1032.21 391.334 1032.21 386.521V170.315C1032.21 165.502 1028.3 161.586 1023.48 161.586H969.152C964.339 161.586 960.423 165.502 960.423 170.315L960.77 280.916L862.141 161.688H799.488C794.675 161.688 790.759 165.604 790.759 170.417V386.643C790.759 391.456 794.654 395.352 799.467 395.352H853.677C858.49 395.352 862.385 391.456 862.385 386.643V275.899L960.015 395.25H1023.48ZM768.161 171.213V385.603C768.161 390.926 763.838 395.25 758.515 395.25H404.93C399.607 395.25 395.283 390.926 395.283 385.603V171.213C395.283 165.89 399.607 161.566 404.93 161.566H758.535C763.838 161.586 768.161 165.89 768.161 171.213ZM694.781 223.709C694.781 221.771 693.007 220.323 691.089 220.711C652.89 228.339 517.632 229.501 472.274 220.65C470.397 220.283 468.664 221.731 468.664 223.668V329.741C468.664 331.618 470.316 333.045 472.192 332.78C509.8 327.213 652.768 328.13 691.355 332.903C693.19 333.127 694.781 331.699 694.781 329.864V223.709V223.709Z" fill="black"/>
<path d="M372.706 170.315V386.521C372.706 391.334 368.79 395.25 363.977 395.25H307.606C302.793 395.25 298.877 391.334 298.877 386.521V170.315C298.877 165.502 302.793 161.586 307.606 161.586H363.977C368.79 161.586 372.706 165.482 372.706 170.315ZM284.56 385.44L218.889 273.085L281.134 171.784C284.111 167.46 281.032 161.566 275.79 161.566L207.366 161.688C205.204 161.688 203.164 162.769 201.961 164.564L153.605 246.735H125.378V170.315C125.378 165.502 121.463 161.586 116.65 161.586H60.2987C55.4855 161.586 51.5697 165.502 51.5697 170.315V386.521C51.5697 391.334 55.4855 395.25 60.2987 395.25H116.67C121.483 395.25 125.399 391.334 125.399 386.521V310.407H159.744L207.814 392.17C208.997 394.128 211.118 395.352 213.402 395.352H279.013C284.111 395.352 287.232 389.784 284.56 385.44ZM1023.48 395.25C1028.3 395.25 1032.21 391.334 1032.21 386.521V170.315C1032.21 165.502 1028.3 161.586 1023.48 161.586H969.152C964.339 161.586 960.423 165.502 960.423 170.315L960.77 280.916L862.141 161.688H799.488C794.675 161.688 790.759 165.604 790.759 170.417V386.643C790.759 391.456 794.654 395.352 799.467 395.352H853.677C858.49 395.352 862.385 391.456 862.385 386.643V275.899L960.015 395.25H1023.48ZM768.161 171.213V385.603C768.161 390.926 763.838 395.25 758.515 395.25H404.93C399.607 395.25 395.283 390.926 395.283 385.603V171.213C395.283 165.89 399.607 161.566 404.93 161.566H758.535C763.838 161.586 768.161 165.89 768.161 171.213ZM694.781 223.709C694.781 221.771 693.007 220.323 691.089 220.711C652.89 228.339 517.632 229.501 472.274 220.65C470.397 220.283 468.664 221.731 468.664 223.668V329.741C468.664 331.618 470.316 333.045 472.192 332.78C509.8 327.213 652.768 328.13 691.355 332.903C693.19 333.127 694.781 331.699 694.781 329.864V223.709V223.709Z" fill="url(#paint0_linear)"/>
<path d="M49 102.135C49 86.411 60.6046 75.0103 75.7784 75.0103C91.0133 75.0103 102.557 86.411 102.557 102.135C102.557 117.86 91.0133 129.26 75.7784 129.26C60.6046 129.24 49 117.921 49 102.135ZM91.0745 102.135C91.0745 91.4893 83.6304 85.4524 75.7784 85.4524C67.8448 85.4524 60.4823 91.5097 60.4823 102.135C60.4823 112.843 67.9264 118.9 75.7784 118.9C83.6304 118.9 91.0745 112.761 91.0745 102.135Z" fill="black"/>
<path d="M154.298 107.275H133.088V128.057H121.748V76.1929H133.088V96.9752H154.298V76.1929H165.556V128.057H154.298V107.275V107.275Z" fill="black"/>
<path d="M188.847 118.532C195.027 118.532 197.535 114.637 197.535 105.317V76.1724H233.145V128.036H221.805V86.5329H208.589V105.174C208.589 121.653 202.879 128.403 188.847 128.403V118.532Z" fill="black"/>
<path d="M293.248 128.057L288.659 115.392H269.264L264.818 128.057H252.989L272.384 76.1929H285.457L305.138 128.057H293.248ZM272.384 106.092H285.457L278.931 88.0219L272.384 106.092Z" fill="black"/>
<path d="M324.819 76.1928H335.608V111.027H335.669L359.531 76.1928H370.442V128.057H359.674V92.7942H359.613L335.69 128.057H324.84V76.1928H324.819ZM347.967 71.5224C340.666 71.5224 334.609 67.8309 334.609 59H342.542C342.542 63.2421 344.215 65.5264 347.967 65.5264C351.72 65.5264 353.392 63.2217 353.392 59H361.326C361.387 67.8513 355.35 71.5224 347.967 71.5224Z" fill="black"/>
<path d="M428.16 107.275H406.949V128.057H395.61V76.1929H406.949V96.9752H428.16V76.1929H439.418V128.057H428.16V107.275Z" fill="black"/>
<path d="M463.157 101.646H483.389V110.191H463.157V101.646Z" fill="black"/>
<path d="M537.904 128.057L518.366 103.379V128.057H507.026V76.1929H518.366V100.524L537.761 76.1929H551.038L530.317 101.788L551.446 128.077H537.904V128.057Z" fill="black"/>
<path d="M570.74 76.1929H581.529V111.027H581.59L605.452 76.1929H616.363V128.057H605.594V92.7942H605.533L581.61 128.057H570.76V76.1929H570.74Z" fill="black"/>
<path d="M674.08 107.275H652.87V128.057H641.53V76.1929H652.87V96.9752H674.08V76.1929H685.338V128.057H674.08V107.275Z" fill="black"/>
<path d="M704.632 102.135C704.632 86.411 716.236 75.0103 731.41 75.0103C746.645 75.0103 758.188 86.411 758.188 102.135C758.188 117.86 746.645 129.26 731.41 129.26C716.236 129.24 704.632 117.921 704.632 102.135ZM746.706 102.135C746.706 91.4893 739.262 85.4524 731.41 85.4524C723.476 85.4524 716.114 91.5097 716.114 102.135C716.114 112.843 723.558 118.9 731.41 118.9C739.262 118.879 746.706 112.761 746.706 102.135Z" fill="black"/>
<path d="M786.496 86.5534H771.261V76.1929H812.908V86.5534H797.754V128.057H786.496V86.5534Z" fill="black"/>
<path d="M830.753 76.1929H863.303V86.4107H842.093V97.1791H861.488V106.561H842.093V117.9H863.303V128.057H830.753V76.1929Z" fill="black"/>
<path d="M921.714 128.057L917.125 115.392H897.73L893.284 128.057H881.455L900.85 76.1929H913.923L933.604 128.057H921.714ZM900.85 106.092H913.923L907.397 88.0219L900.85 106.092Z" fill="black"/>
<path d="M955.692 86.5534H940.457V76.1929H982.103V86.5534H966.95V128.057H955.692V86.5534Z" fill="black"/>
<path d="M996.889 76.1929H1012.19C1026.44 76.1929 1034.78 83.2902 1034.78 94.4054C1034.78 104.909 1026.99 113.393 1012.88 113.393H1008.21V128.057H996.869V76.1929H996.889ZM1023.3 94.8337C1023.3 89.4087 1019.2 86.5534 1013.29 86.5534H1008.21V103.318H1013.35C1019.2 103.318 1023.3 100.259 1023.3 94.8337Z" fill="black"/>
<defs>
<linearGradient id="paint0_linear" x1="481.122" y1="505.614" x2="630.553" y2="-53.4557" gradientUnits="userSpaceOnUse">
<stop offset="0.0335" stop-color="#3973B9"/>
<stop offset="0.0824" stop-color="#355DA8"/>
<stop offset="0.1559" stop-color="#334093"/>
<stop offset="0.2125" stop-color="#303189"/>
<stop offset="0.245" stop-color="#2E2B86"/>
<stop offset="0.4706" stop-color="#C40D71"/>
<stop offset="0.4987" stop-color="#C81163"/>
<stop offset="0.5326" stop-color="#CB1353"/>
<stop offset="0.5699" stop-color="#CE1445"/>
<stop offset="0.6103" stop-color="#D01437"/>
<stop offset="0.6547" stop-color="#D2132C"/>
<stop offset="0.7048" stop-color="#D31323"/>
<stop offset="0.7639" stop-color="#D4131D"/>
<stop offset="0.8407" stop-color="#D41319"/>
<stop offset="1" stop-color="#D51317"/>
</linearGradient>
</defs>
</svg>
