<svg width="18" height="18" viewBox="0 0 18 18" fill="none" xmlns="http://www.w3.org/2000/svg">
<path d="M9 3.375C5.25 3.375 2.0475 5.7075 0.75 9C2.0475 12.2925 5.25 14.625 9 14.625C9.27 14.625 9.54 14.625 9.81 14.5875C9.77141 14.3519 9.75135 14.1137 9.75 13.875C9.75 13.605 9.78 13.335 9.825 13.065C9.555 13.095 9.2775 13.125 9 13.125C6.18 13.125 3.6225 11.52 2.385 9C2.99119 7.76227 3.93248 6.71944 5.10186 5.99006C6.27124 5.26068 7.6218 4.87401 9 4.87401C10.3782 4.87401 11.7288 5.26068 12.8981 5.99006C14.0675 6.71944 15.0088 7.76227 15.615 9C15.525 9.18 15.42 9.3375 15.3225 9.51C15.8175 9.63 16.29 9.8325 16.7175 10.125C16.92 9.75 17.1 9.375 17.25 9C15.9525 5.7075 12.75 3.375 9 3.375ZM9 6.75C8.40326 6.75 7.83097 6.98705 7.40901 7.40901C6.98705 7.83097 6.75 8.40326 6.75 9C6.75 9.59674 6.98705 10.169 7.40901 10.591C7.83097 11.0129 8.40326 11.25 9 11.25C9.59674 11.25 10.169 11.0129 10.591 10.591C11.0129 10.169 11.25 9.59674 11.25 9C11.25 8.40326 11.0129 7.83097 10.591 7.40901C10.169 6.98705 9.59674 6.75 9 6.75ZM13.5 10.875V13.125H11.25V14.625H13.5V16.875H15V14.625H17.25V13.125H15V10.875H13.5Z" fill="white"/>
</svg>
