<svg width="16" height="16" viewBox="0 0 16 16" fill="none" xmlns="http://www.w3.org/2000/svg">
<path d="M6 3.34129C6 2.74129 6.718 2.44129 7.13733 2.86529L9.20133 4.95196C10.6227 6.38796 11.3333 7.10662 11.3333 7.99996C11.3333 8.89329 10.6227 9.61129 9.20133 11.0486L7.13733 13.1346C6.71733 13.5593 6 13.2586 6 12.658C6 12.48 6.07 12.3086 6.19533 12.182L8.25867 10.0953C8.996 9.34996 9.452 8.88529 9.74067 8.50262C10.0007 8.15796 10.0007 8.03796 10.0007 8.00196V7.99796C10.0007 7.96262 10.0007 7.84196 9.74067 7.49729C9.45267 7.11462 8.996 6.64929 8.25867 5.90396L6.19533 3.81796C6.06999 3.69099 5.99979 3.5197 6 3.34129Z" fill="#677F99"/>
</svg>
