<svg width="165" height="165" viewBox="0 0 165 165" fill="none" xmlns="http://www.w3.org/2000/svg">
<circle cx="82.5" cy="82.5" r="82.5" fill="#0275D8"/>
<path d="M39.592 98V61.648H25.256V53.2H64.296V61.648H49.96V98H39.592ZM88.5405 98V91.28L87.9005 89.808V77.776C87.9005 75.6427 87.2392 73.9787 85.9165 72.784C84.6365 71.5893 82.6525 70.992 79.9645 70.992C78.1298 70.992 76.3165 71.2907 74.5245 71.888C72.7752 72.4427 71.2818 73.2107 70.0445 74.192L66.4605 67.216C68.3378 65.8933 70.5992 64.8693 73.2445 64.144C75.8898 63.4187 78.5778 63.056 81.3085 63.056C86.5565 63.056 90.6312 64.2933 93.5325 66.768C96.4338 69.2427 97.8845 73.104 97.8845 78.352V98H88.5405ZM78.0445 98.512C75.3565 98.512 73.0525 98.064 71.1325 97.168C69.2125 96.2293 67.7405 94.9707 66.7165 93.392C65.6925 91.8133 65.1805 90.0427 65.1805 88.08C65.1805 86.032 65.6712 84.24 66.6525 82.704C67.6765 81.168 69.2765 79.9733 71.4525 79.12C73.6285 78.224 76.4658 77.776 79.9645 77.776H89.1165V83.6H81.0525C78.7058 83.6 77.0845 83.984 76.1885 84.752C75.3352 85.52 74.9085 86.48 74.9085 87.632C74.9085 88.912 75.3992 89.936 76.3805 90.704C77.4045 91.4293 78.7912 91.792 80.5405 91.792C82.2045 91.792 83.6978 91.408 85.0205 90.64C86.3432 89.8293 87.3032 88.656 87.9005 87.12L89.4365 91.728C88.7112 93.9467 87.3885 95.632 85.4685 96.784C83.5485 97.936 81.0738 98.512 78.0445 98.512ZM106.921 98V63.568H116.905V98H106.921ZM111.913 58.768C110.078 58.768 108.585 58.2347 107.433 57.168C106.281 56.1013 105.705 54.7787 105.705 53.2C105.705 51.6213 106.281 50.2987 107.433 49.232C108.585 48.1653 110.078 47.632 111.913 47.632C113.747 47.632 115.241 48.144 116.393 49.168C117.545 50.1493 118.121 51.4293 118.121 53.008C118.121 54.672 117.545 56.0587 116.393 57.168C115.283 58.2347 113.79 58.768 111.913 58.768ZM126.171 98V50.512H136.155V98H126.171Z" fill="white"/>
<path d="M68.648 125V122.48L68.408 121.928V117.416C68.408 116.616 68.16 115.992 67.664 115.544C67.184 115.096 66.44 114.872 65.432 114.872C64.744 114.872 64.064 114.984 63.392 115.208C62.736 115.416 62.176 115.704 61.712 116.072L60.368 113.456C61.072 112.96 61.92 112.576 62.912 112.304C63.904 112.032 64.912 111.896 65.936 111.896C67.904 111.896 69.432 112.36 70.52 113.288C71.608 114.216 72.152 115.664 72.152 117.632V125H68.648ZM64.712 125.192C63.704 125.192 62.84 125.024 62.12 124.688C61.4 124.336 60.848 123.864 60.464 123.272C60.08 122.68 59.888 122.016 59.888 121.28C59.888 120.512 60.072 119.84 60.44 119.264C60.824 118.688 61.424 118.24 62.24 117.92C63.056 117.584 64.12 117.416 65.432 117.416H68.864V119.6H65.84C64.96 119.6 64.352 119.744 64.016 120.032C63.696 120.32 63.536 120.68 63.536 121.112C63.536 121.592 63.72 121.976 64.088 122.264C64.472 122.536 64.992 122.672 65.648 122.672C66.272 122.672 66.832 122.528 67.328 122.24C67.824 121.936 68.184 121.496 68.408 120.92L68.984 122.648C68.712 123.48 68.216 124.112 67.496 124.544C66.776 124.976 65.848 125.192 64.712 125.192ZM83.1725 125.192C82.0845 125.192 81.1325 124.952 80.3165 124.472C79.5005 123.992 78.8605 123.264 78.3965 122.288C77.9485 121.296 77.7245 120.048 77.7245 118.544C77.7245 117.024 77.9405 115.776 78.3725 114.8C78.8045 113.824 79.4285 113.096 80.2445 112.616C81.0605 112.136 82.0365 111.896 83.1725 111.896C84.3885 111.896 85.4765 112.176 86.4365 112.736C87.4125 113.28 88.1805 114.048 88.7405 115.04C89.3165 116.032 89.6045 117.2 89.6045 118.544C89.6045 119.904 89.3165 121.08 88.7405 122.072C88.1805 123.064 87.4125 123.832 86.4365 124.376C85.4765 124.92 84.3885 125.192 83.1725 125.192ZM75.5405 129.656V112.088H79.1165V114.728L79.0445 118.568L79.2845 122.384V129.656H75.5405ZM82.5245 122.12C83.1485 122.12 83.7005 121.976 84.1805 121.688C84.6765 121.4 85.0685 120.992 85.3565 120.464C85.6605 119.92 85.8125 119.28 85.8125 118.544C85.8125 117.792 85.6605 117.152 85.3565 116.624C85.0685 116.096 84.6765 115.688 84.1805 115.4C83.7005 115.112 83.1485 114.968 82.5245 114.968C81.9005 114.968 81.3405 115.112 80.8445 115.4C80.3485 115.688 79.9565 116.096 79.6685 116.624C79.3805 117.152 79.2365 117.792 79.2365 118.544C79.2365 119.28 79.3805 119.92 79.6685 120.464C79.9565 120.992 80.3485 121.4 80.8445 121.688C81.3405 121.976 81.9005 122.12 82.5245 122.12ZM99.7428 125.192C98.6548 125.192 97.7028 124.952 96.8868 124.472C96.0708 123.992 95.4308 123.264 94.9668 122.288C94.5188 121.296 94.2948 120.048 94.2948 118.544C94.2948 117.024 94.5108 115.776 94.9428 114.8C95.3748 113.824 95.9988 113.096 96.8148 112.616C97.6308 112.136 98.6068 111.896 99.7428 111.896C100.959 111.896 102.047 112.176 103.007 112.736C103.983 113.28 104.751 114.048 105.311 115.04C105.887 116.032 106.175 117.2 106.175 118.544C106.175 119.904 105.887 121.08 105.311 122.072C104.751 123.064 103.983 123.832 103.007 124.376C102.047 124.92 100.959 125.192 99.7428 125.192ZM92.1108 129.656V112.088H95.6868V114.728L95.6148 118.568L95.8548 122.384V129.656H92.1108ZM99.0948 122.12C99.7188 122.12 100.271 121.976 100.751 121.688C101.247 121.4 101.639 120.992 101.927 120.464C102.231 119.92 102.383 119.28 102.383 118.544C102.383 117.792 102.231 117.152 101.927 116.624C101.639 116.096 101.247 115.688 100.751 115.4C100.271 115.112 99.7188 114.968 99.0948 114.968C98.4708 114.968 97.9108 115.112 97.4148 115.4C96.9188 115.688 96.5268 116.096 96.2388 116.624C95.9508 117.152 95.8068 117.792 95.8068 118.544C95.8068 119.28 95.9508 119.92 96.2388 120.464C96.5268 120.992 96.9188 121.4 97.4148 121.688C97.9108 121.976 98.4708 122.12 99.0948 122.12Z" fill="white"/>
<path d="M30 106H141.406" stroke="white" stroke-width="3" stroke-linecap="round"/>
</svg>
